# AST/ASF file generated using VICON BodyLanguage
# -----------------------------------------------
:version 1.10
:name VICON
:units
  mass 1.0
  length 0.45
  angle deg
:documentation
   .ast/.asf automatically generated from VICON data using
   VICON BodyBuilder and BodyLanguage model FoxedUp or BRILLIANT.MOD
:root
   order TX TY TZ RX RY RZ
   axis XYZ
   position 0 0 0  
   orientation 0 0 0 
:bonedata
  begin
     id 1 
     name lhipjoint
     direction 0.576517 -0.752066 0.319413 
     length 2.45433 
     axis 0 0 0  XYZ
  end
  begin
     id 2 
     name lfemur
     direction 0.34202 -0.939693 0  
     length 7.54459  
     axis 0 0 20  XYZ
    dof rx ry rz
    limits (-160.0 20.0)
           (-70.0 70.0)
           (-60.0 70.0)
  end
  begin
     id 3 
     name ltibia
     direction 0.34202 -0.939693 0   
     length 7.73986   
     axis 0 0 20   XYZ
    dof rx
    limits (-10.0 170.0)
  end
  begin
     id 4 
     name lfoot
     direction 0.090693 -0.249177 0.964202   
     length 2.28437   
     axis -90 7.62852e-016 20   XYZ
    dof rx rz
    limits (-45.0 90.0)
           (-70.0 20.0)
  end
  begin
     id 5 
     name ltoes
     direction 1.5356e-011 -4.21928e-011 1   
     length 1.14243   
     axis -90 7.62852e-016 20   XYZ
    dof rx
    limits (-90.0 20.0)
  end
  begin
     id 6 
     name rhipjoint
     direction -0.573937 -0.753736 0.320122   
     length 2.44889  
     axis 0 0 0  XYZ 
  end
  begin
     id 7 
     name rfemur
     direction -0.34202 -0.939693 0   
     length 7.50166   
     axis 0 0 -20   XYZ
    dof rx ry rz
    limits (-160.0 20.0)
           (-70.0 70.0)
           (-70.0 60.0)
  end
  begin
     id 8 
     name rtibia
     direction -0.34202 -0.939693 0   
     length 7.54266   
     axis 0 0 -20   XYZ
    dof rx
    limits (-10.0 170.0)
 end
 begin
     id 9 
     name rfoot
     direction -0.114017 -0.31326 0.942798   
     length 2.34212  
     axis -90 -7.62852e-016 -20   XYZ
    dof rx rz
    limits (-45.0 90.0)
           (-20.0 70.0)
  end
  begin
     id 10 
     name rtoes
     direction -1.53557e-011 -4.21867e-011 1   
     length 1.16246   
     axis -90 -7.62852e-016 -20   XYZ
    dof rx
    limits (-90.0 20.0)
  end
  begin
     id 11 
     name lowerback
     direction -0.0228371 0.999155 -0.034167   
     length 2.0537   
     axis 0 0 0   XYZ
    dof rx ry rz
    limits (-20.0 45.0)
           (-30.0 30.0)
           (-30.0 30.0)
  end
  begin
     id 12 
     name upperback
     direction 0.0198981 0.999794 0.00389455   
     length 2.05302   
     axis 0 0 0   XYZ
    dof rx ry rz
    limits (-20.0 45.0)
           (-30.0 30.0)
           (-30.0 30.0)
  end
  begin
     id 13 
     name thorax
     direction 0.0304566 0.99935 0.0192987   
     length 2.05315   
     axis 0 0 0   XYZ
    dof rx ry rz
    limits (-20.0 45.0)
           (-30.0 30.0)
           (-30.0 30.0)
  end
  begin
     id 14 
     name lowerneck
     direction -0.0196762 0.99417 0.106017   
     length 1.82056   
     axis 0 0 0   XYZ
    dof rx ry rz
    limits (-20.0 45.0)
           (-30.0 30.0)
           (-30.0 30.0)
  end
  begin
     id 15 
     name upperneck
     direction 0.00517787 0.9802 -0.197944   
     length 1.83835   
     axis 0 0 0   XYZ
    dof rx ry rz
    limits (-20.0 45.0)
           (-30.0 30.0)
           (-30.0 30.0)
  end
  begin
     id 16
     name head
     direction 0.00211419 0.996945 -0.078081  
     length 1.85629  
     axis 0 0 0   XYZ
    dof rx ry rz
    limits (-20.0 45.0)
           (-30.0 30.0)
           (-30.0 30.0)
  end
  begin
     id 17 
     name lclavicle
     direction 0.930001 0.365811 -0.0357824  
     length 3.81961  
     axis 0 0 0   XYZ
    dof ry rz
    limits (-20.0 10.0)
           (0.0 20.0)
  end
  begin
     id 18 
     name lhumerus
     direction 1 -4.48968e-011 -3.06644e-027   
     length 5.14507   
     axis 180 -30 -90   XYZ
    dof rx ry rz
    limits (-60.0 90.0)
           (-90.0 90.0)
           (-90.0 90.0)
  end
  begin
     id 19
     name lradius
     direction 1 -4.48965e-011 9.06925e-028   
     length 3.50646   
     axis 180 -30 -90   XYZ
    dof rx
    limits (-10.0 170.0)
  end
  begin
     id 20
     name lwrist
     direction 1 -4.48957e-011 1.03922e-027   
     length 1.75323   
     axis -2.56395e-016 90 90   XYZ
    dof ry
    limits (-180.0 0.0)
 end
  begin
     id 21 
     name lhand
     direction 1 -4.48967e-011 2.08017e-027   
     length 0.629969   
     axis -1.32723e-015 90 90   XYZ
    dof rx rz
    limits (-90.0 90.0)
           (-45.0 45.0)
  end
  begin
     id 22 
     name lfingers
     direction 1 -4.49089e-011 4.20095e-027   
     length 0.507897   
     axis -2.6545e-015 90 90   XYZ
    dof rx
    limits (0.0 90.0)
  end
  begin
     id 23
     name lthumb
     direction 0.707107 -6.35001e-011 0.707107   
     length 0.729241   
     axis -90 45 5.05613e-014   XYZ
    dof rx rz
    limits (-45.0 45.0)
           (-45.0 45.0)
  end
  begin
     id 24 
     name rclavicle
     direction -0.881882 0.464123 -0.0829113   
     length 3.47515  
     axis 0 0 0   XYZ 
    dof ry rz
    limits (-10.0 20.0)
           (-20.0 0.0)
  end
  begin
     id 25 
     name rhumerus
     direction -1 -4.48961e-011 -1.55672e-027  
     length 5.232   
     axis 180 30 90   XYZ
    dof rx ry rz
    limits (-90.0 60.0)
           (-90.0 90.0)
           (-90.0 90.0)
  end
  begin
     id 26 
     name rradius
     direction -1 -4.48963e-011 6.18178e-029   
     length 3.65641   
     axis 180 30 90   XYZ
    dof rx
    limits (-10.0 170.0)
  end
  begin
     id 27 
     name rwrist
     direction -1 -4.48982e-011 1.04136e-027   
     length 1.8282   
     axis -2.56395e-016 -90 -90   XYZ
    dof ry
    limits (-180.0 0.0)
  end
  begin
     id 28
     name rhand
     direction -1 -4.48929e-011 2.07378e-027   
     length 0.656807   
     axis -1.32723e-015 -90 -90   XYZ
    dof rx rz
    limits (-90.0 90.0)
           (-45.0 45.0)
  end
  begin
     id 29
     name rfingers
     direction -1 -4.489e-011 4.13816e-027   
     length 0.529535   
     axis -2.6545e-015 -90 -90   XYZ
    dof rx
    limits (0.0 90.0)
  end
  begin
     id 30
     name rthumb
     direction -0.707107 -6.34843e-011 0.707107   
     length 0.760309   
     axis -90 -45 -5.05613e-014   XYZ
    dof rx rz
    limits (-45.0 45.0)
           (-45.0 45.0)
  end
:hierarchy
  begin
    root lhipjoint rhipjoint lowerback
    lhipjoint lfemur
    lfemur ltibia
    ltibia lfoot
    lfoot ltoes
    rhipjoint rfemur
    rfemur rtibia
    rtibia rfoot
    rfoot rtoes
    lowerback upperback
    upperback thorax
    thorax lowerneck lclavicle rclavicle
    lowerneck upperneck
    upperneck head
    lclavicle lhumerus
    lhumerus lradius
    lradius lwrist
    lwrist lhand lthumb
    lhand lfingers
    rclavicle rhumerus
    rhumerus rradius
    rradius rwrist
    rwrist rhand rthumb
    rhand rfingers
  end

#!OML:ASF H:\ManfredETheater\Project 1\Capture day 1\Session 1\subject.ASF
:FULLY-SPECIFIED
:DEGREES
32
root 1.41719 15.5772 34.7442 -153.638 -3.23043 175.638
lowerback 16.2314 -2.56146 -1.58355
upperback 0.339393 -3.6215 2.87756
thorax -8.45762 -1.69122 4.8508
lowerneck -18.537 -1.43884 -3.60591
upperneck -0.937655 -0.552517 0.590116
head 2.96743 0.00965502 0.809466
rclavicle 3.18055e-015 1.23246e-014
rhumerus -61.6272 -3.48762 -80.0669
rradius 78.2674
rwrist -16.6551
rhand -31.6812 2.46595
rfingers 7.12502
rthumb -4.94094 -27.4564
lclavicle 3.18055e-015 1.23246e-014
lhumerus -31.8988 -25.5483 97.7605
lradius 106.608
lwrist 8.93384
lhand -23.9531 -6.93127
lfingers 7.12502
lthumb 2.52264 23.0336
rfemur -62.2371 -7.41887 22.2028
rtibia 72.508
rfoot -22.7565 -10.9331
rtoes -25.9087
lfemur -14.9331 -6.90194 -22.6703
ltibia 62.8596
lfoot 18.6471 -6.20776
ltoes 16.0729
33
root 1.43238 15.5809 34.3074 -153.829 -3.22773 176.665
lowerback 16.6382 -2.36328 -0.740362
upperback 0.441579 -3.20709 3.1759
thorax -8.63959 -1.52914 4.62742
lowerneck -18.383 -1.54056 -3.65865
upperneck -1.40614 -0.640495 0.491283
head 2.77515 -0.0152316 0.776583
rclavicle -1.35174e-014 5.1684e-014
rhumerus -59.2135 -3.39507 -80.7412
rradius 78.289
rwrist -16.8133
rhand -31.7658 2.31505
rfingers 7.12502
rthumb -5.02257 -27.6054
lclavicle -1.35174e-014 5.1684e-014
lhumerus -33.0285 -24.3616 98.5379
lradius 102.987
lwrist 8.9463
lhand -24.4204 -7.13806
lfingers 7.12502
lthumb 2.07134 22.8316
rfemur -59.8369 -6.75364 23.0486
rtibia 72.1954
rfoot -24.1363 -11.5901
rtoes -27.7034
lfemur -17.3366 -5.8223 -21.4701
ltibia 66.883
lfoot 16.8276 -6.39063
ltoes 15.7625
34
root 1.44723 15.5649 33.8789 -153.952 -3.26836 177.611
lowerback 16.9962 -2.18808 0.0550775
upperback 0.506559 -2.82674 3.44762
thorax -8.8236 -1.38289 4.40442
lowerneck -18.2396 -1.63493 -3.6778
upperneck -1.83065 -0.728723 0.388595
head 2.60102 -0.0416525 0.737114
rclavicle 6.79844e-014 -1.66979e-014
rhumerus -56.7055 -3.07075 -81.4966
rradius 78.4086
rwrist -16.9254
rhand -31.7808 2.24275
rfingers 7.12502
rthumb -5.0371 -27.6774
lclavicle 6.79844e-014 -1.66979e-014
lhumerus -34.0307 -22.9843 99.0952
lradius 99.189
lwrist 9.09516
lhand -25.0056 -7.31288
lfingers 7.12502
lthumb 1.50613 22.6615
rfemur -57.5392 -6.17924 23.8352
rtibia 71.8037
rfoot -25.4587 -12.0908
rtoes -29.1415
lfemur -20.0046 -4.78696 -20.323
ltibia 70.9684
lfoot 14.9108 -6.40444
ltoes 15.6792
35
root 1.46258 15.5465 33.4515 -153.984 -3.33606 178.408
lowerback 17.2629 -2.02781 0.737534
upperback 0.537765 -2.48321 3.67691
thorax -8.98142 -1.25056 4.20073
lowerneck -18.1425 -1.72754 -3.67026
upperneck -2.1844 -0.821481 0.280233
head 2.46063 -0.0726014 0.691537
rclavicle -2.22639e-014 -2.8625e-014
rhumerus -54.1321 -2.51966 -82.3033
rradius 78.6986
rwrist -16.9495
rhand -31.7279 2.26198
rfingers 7.12502
rthumb -4.98604 -27.6594
lclavicle -2.22639e-014 -2.8625e-014
lhumerus -34.9406 -21.4803 99.4306
lradius 95.361
lwrist 9.35631
lhand -25.691 -7.39677
lfingers 7.12502
lthumb 0.844222 22.5813
rfemur -55.2848 -5.73308 24.5153
rtibia 71.2744
rfoot -26.7348 -12.5179
rtoes -30.3849
lfemur -22.916 -3.80637 -19.3173
ltibia 75.0005
lfoot 12.8186 -6.21107
ltoes 15.3014
36
root 1.47844 15.5261 33.0248 -153.929 -3.42479 179.029
lowerback 17.4429 -1.88036 1.27796
upperback 0.531189 -2.17969 3.85965
thorax -9.12119 -1.13083 4.03099
lowerneck -18.1139 -1.81882 -3.64586
upperneck -2.43457 -0.917735 0.164488
head 2.36896 -0.109171 0.641129
rclavicle 7.95139e-016 -7.15625e-015
rhumerus -51.5492 -1.74689 -83.1262
rradius 79.2514
rwrist -16.8633
rhand -31.5971 2.45559
rfingers 7.12502
rthumb -4.85975 -27.4687
lclavicle 7.95139e-016 -7.15625e-015
lhumerus -35.8613 -19.9117 99.5737
lradius 91.7034
lwrist 9.6416
lhand -26.4636 -7.41718
lfingers 7.12502
lthumb 0.0979432 22.5625
rfemur -53.0983 -5.43923 25.0747
rtibia 70.6579
rfoot -27.9771 -12.9
rtoes -31.4209
lfemur -26.0578 -2.89269 -18.503
ltibia 78.9578
lfoot 10.6163 -5.8059
ltoes 14.8207
37
root 1.49455 15.5035 32.5987 -153.791 -3.51033 179.489
lowerback 17.5349 -1.73672 1.67264
upperback 0.489311 -1.90617 3.99834
thorax -9.24221 -1.0179 3.89844
lowerneck -18.1564 -1.90558 -3.61482
upperneck -2.57799 -1.01152 0.0495193
head 2.32713 -0.148504 0.590584
rclavicle 3.97569e-015 1.98785e-014
rhumerus -49.0168 -0.766172 -83.9389
rradius 80.1682
rwrist -16.6757
rhand -31.3911 2.77501
rfingers 7.12502
rthumb -4.66076 -27.1537
lclavicle 3.97569e-015 1.98785e-014
lhumerus -36.9132 -18.3413 99.55
lradius 88.4712
lwrist 9.82761
lhand -27.2655 -7.40209
lfingers 7.12502
lthumb -0.676503 22.5766
rfemur -50.9818 -5.28027 25.5222
rtibia 69.9452
rfoot -29.1365 -13.2371
rtoes -32.2846
lfemur -29.396 -2.03799 -17.8899
ltibia 82.7671
lfoot 8.35878 -5.21623
ltoes 14.3688
